<?xml version="1.0" standalone="no"?>
<!DOCTYPE svg PUBLIC "-//W3C//DTD SVG 20010904//EN"
 "http://www.w3.org/TR/2001/REC-SVG-20010904/DTD/svg10.dtd">
<svg version="1.0" xmlns="http://www.w3.org/2000/svg"
 width="1280.000000pt" height="1256.000000pt" viewBox="0 0 1280.000000 1256.000000"
 preserveAspectRatio="xMidYMid meet">
<metadata>
Created by potrace 1.15, written by Peter Selinger 2001-2017
</metadata>
<g transform="translate(0.000000,1256.000000) scale(0.100000,-0.100000)"
fill="pink" stroke="none">
<path d="M7227 12550 c-210 -33 -389 -113 -558 -248 -181 -145 -323 -360 -396
-597 -26 -86 -27 -99 -27 -310 0 -211 1 -224 27 -310 44 -143 144 -337 220
-426 140 -163 397 -353 530 -390 39 -11 40 -13 17 -20 -14 -4 -39 -7 -56 -8
-99 -3 -258 -65 -413 -160 -83 -50 -86 -51 -162 -51 -97 0 -145 17 -404 145
-104 51 -298 138 -430 193 -132 55 -315 134 -405 175 -170 77 -393 155 -522
181 -40 8 -118 18 -173 21 -110 8 -171 -3 -200 -35 -20 -23 -89 -46 -280 -95
-87 -22 -176 -53 -235 -81 -52 -25 -105 -47 -118 -49 -12 -1 -30 -9 -40 -17
-9 -8 -44 -28 -77 -45 -52 -27 -105 -44 -289 -94 -24 -7 -59 -31 -96 -67 -53
-52 -149 -122 -167 -122 -14 0 -62 96 -73 146 -6 27 -20 61 -30 76 -11 15 -20
37 -20 50 0 13 -7 36 -15 52 -8 15 -15 33 -15 40 0 6 -16 42 -36 81 -68 133
-257 328 -411 423 -56 34 -105 62 -110 62 -4 0 -24 9 -44 19 -32 17 -82 29
-184 45 -16 2 -73 -2 -125 -10 -75 -11 -114 -23 -185 -59 -49 -24 -111 -61
-137 -82 -283 -229 -344 -282 -381 -331 -100 -131 -127 -207 -127 -356 0 -56
5 -128 10 -161 5 -33 16 -105 25 -160 19 -123 31 -161 56 -178 10 -8 46 -40
79 -71 l60 -58 -25 -30 c-66 -78 -85 -171 -50 -239 16 -31 66 -59 104 -59 29
0 33 -13 15 -55 -13 -33 -13 -42 0 -89 13 -42 24 -58 60 -84 33 -24 45 -40 50
-67 9 -45 58 -83 119 -91 29 -4 54 -15 68 -30 20 -22 21 -27 10 -64 -22 -73
24 -181 91 -216 35 -18 74 -18 82 1 3 8 12 12 21 9 29 -12 94 36 268 197 82
75 102 88 165 108 47 15 83 21 104 17 34 -6 38 -7 74 -19 11 -4 42 -32 67 -62
64 -73 71 -115 64 -360 -10 -312 -43 -483 -117 -600 -74 -117 -91 -176 -97
-330 -4 -117 -1 -151 31 -342 21 -117 55 -279 77 -360 28 -104 39 -161 36
-193 -9 -100 -117 -688 -138 -757 -13 -40 -49 -63 -167 -107 -173 -64 -209
-97 -289 -261 l-47 -98 -10 -246 c-5 -135 -10 -446 -10 -691 l-1 -445 -31 -75
c-46 -109 -307 -622 -399 -780 -119 -207 -136 -231 -221 -306 -225 -198 -365
-366 -465 -559 -29 -55 -63 -114 -76 -131 -28 -38 -30 -86 -4 -128 14 -23 21
-59 25 -136 9 -138 13 -154 38 -165 12 -6 27 -26 33 -45 12 -36 30 -46 54 -31
8 5 19 49 28 107 8 53 21 111 30 128 26 50 94 148 100 142 3 -2 -14 -40 -38
-84 l-42 -78 23 -100 c31 -132 80 -196 128 -165 9 5 17 43 22 111 10 122 39
206 91 262 63 66 76 47 49 -73 -56 -255 -56 -259 -28 -259 6 0 16 -8 23 -17
11 -15 16 -16 38 -4 24 13 64 73 72 108 2 10 18 58 35 106 16 48 30 95 30 103
0 8 35 69 77 135 43 66 83 128 88 137 6 9 29 42 52 72 49 65 123 202 123 228
0 10 4 22 10 28 11 11 50 121 76 214 10 36 25 78 35 94 15 24 18 26 22 10 3
-11 11 -121 18 -247 9 -170 10 -230 1 -239 -8 -8 -10 -69 -5 -217 6 -213 -4
-390 -34 -596 -8 -60 -20 -116 -25 -122 -7 -9 -38 -13 -87 -13 -80 0 -134 -18
-155 -52 -12 -20 9 -71 53 -128 43 -57 51 -81 36 -121 -30 -79 -108 -265 -115
-274 -13 -16 -233 -123 -335 -163 -27 -11 -88 -36 -135 -55 -47 -19 -148 -60
-225 -92 -77 -31 -158 -65 -180 -75 -24 -11 -95 -26 -175 -35 -264 -31 -408
-62 -444 -93 -29 -26 -46 -75 -52 -155 -7 -80 3 -107 56 -154 33 -29 133 -83
154 -83 10 0 14 -4 11 -10 -3 -5 -44 -10 -90 -10 -53 0 -86 -4 -91 -12 -10
-16 2831 1 2943 18 27 4 33 10 33 29 0 13 -9 30 -21 38 -13 9 -16 17 -10 22
18 10 13 37 -19 100 -16 33 -30 65 -30 71 0 6 -9 40 -20 75 -12 35 -19 73 -16
83 7 27 -22 231 -41 290 -22 69 -13 189 22 286 35 95 42 255 13 273 -25 16
-67 -17 -96 -76 -25 -49 -53 -63 -118 -55 -27 3 -29 7 -36 58 -13 97 -22 668
-11 682 6 7 14 51 18 98 6 80 20 180 44 314 7 40 7 64 0 72 -9 11 0 67 43 264
7 30 13 62 15 70 1 8 12 56 23 105 44 182 50 211 59 255 14 72 60 228 92 310
16 41 36 107 45 145 8 39 26 105 40 147 13 43 28 106 33 142 5 36 12 69 14 73
11 18 19 222 17 428 -3 291 -4 293 -19 344 -15 53 -9 61 64 85 80 25 314 77
390 87 178 21 348 31 371 21 12 -6 46 -46 75 -89 28 -43 66 -96 83 -118 29
-36 98 -142 152 -232 12 -19 24 -52 28 -72 6 -39 41 -85 56 -76 5 3 42 15 82
26 168 45 308 82 383 99 44 11 114 29 155 40 41 12 100 27 130 34 30 8 134 34
230 59 96 25 198 49 226 52 48 7 52 6 71 -21 11 -16 33 -54 48 -84 15 -30 61
-110 102 -178 41 -68 93 -160 115 -205 l40 -82 -6 -170 c-2 -93 -10 -190 -17
-215 -17 -67 -16 -270 4 -385 9 -55 19 -122 22 -149 8 -58 33 -85 102 -111 27
-9 84 -32 128 -50 44 -19 94 -37 110 -41 17 -3 66 -24 110 -44 103 -49 125
-53 164 -34 25 12 35 13 46 4 19 -16 155 -268 232 -430 33 -69 76 -150 97
-180 20 -30 67 -113 103 -185 79 -152 130 -208 238 -260 88 -42 123 -53 210
-65 137 -19 356 -61 423 -82 18 -5 155 -16 305 -23 236 -12 664 -56 688 -71 5
-3 50 -7 101 -10 51 -3 149 -11 218 -19 69 -7 166 -16 215 -20 50 -3 126 -10
170 -16 44 -5 186 -13 317 -18 175 -7 243 -13 265 -24 20 -11 61 -15 132 -16
57 0 126 -5 155 -10 28 -6 80 -13 116 -16 36 -3 90 -12 120 -20 30 -8 82 -17
115 -21 57 -6 103 -22 135 -49 12 -10 80 -38 205 -85 11 -4 46 -21 78 -36 l59
-29 -6 -54 c-8 -64 -17 -84 -66 -136 -24 -26 -39 -53 -43 -77 -3 -21 -25 -73
-49 -115 -39 -69 -51 -82 -104 -113 -34 -19 -83 -50 -110 -68 -27 -18 -60 -35
-74 -38 -14 -3 -61 -22 -105 -43 -44 -22 -101 -46 -127 -56 -66 -23 -98 -64
-98 -124 0 -63 22 -134 56 -178 l27 -36 426 6 c234 4 482 11 551 17 69 5 144
11 167 12 44 3 56 13 26 22 -10 2 -83 8 -162 11 l-144 7 69 37 c54 28 101 68
214 181 119 118 300 290 306 290 4 0 107 71 131 90 14 11 35 20 45 20 11 0 32
9 46 20 15 12 56 42 91 68 126 94 145 110 165 147 20 35 29 42 108 80 44 21
179 172 209 232 11 23 23 58 26 78 5 34 2 40 -41 80 -26 23 -66 52 -89 63
-108 52 -153 72 -162 72 -6 0 -44 34 -85 75 -41 41 -78 75 -82 75 -4 0 -43 27
-86 60 -68 53 -85 72 -127 148 -46 82 -138 192 -177 213 -41 22 -226 -131
-294 -242 -19 -33 -42 -59 -50 -59 -8 0 -31 7 -51 15 -20 9 -78 22 -129 30
-51 9 -119 24 -151 34 -32 10 -121 33 -198 51 -77 17 -237 55 -355 85 -254 63
-281 69 -470 95 -80 12 -210 38 -290 59 -192 51 -511 126 -630 146 -52 10
-105 23 -117 31 -12 8 -29 14 -36 14 -8 0 -43 9 -78 21 -113 36 -321 78 -439
89 -63 5 -227 14 -365 19 -245 9 -251 10 -303 37 -48 25 -57 35 -88 98 -19 39
-34 81 -34 93 0 12 -4 24 -9 28 -6 3 -10 13 -10 23 0 31 -21 115 -32 128 -6 7
-12 51 -13 97 -1 69 -5 88 -24 112 -17 21 -21 36 -17 57 4 16 2 34 -3 41 -5 7
-12 35 -16 62 -5 44 -18 127 -31 205 -5 32 -20 99 -40 175 -34 131 -46 181
-52 213 -3 18 -9 35 -14 38 -5 3 -9 15 -9 27 0 12 -11 63 -24 112 -43 164 -47
180 -61 240 -40 174 -57 255 -65 300 -4 28 -14 64 -20 80 -6 17 -10 53 -9 80
1 28 -1 58 -6 68 -5 13 -1 27 12 45 20 27 20 27 0 43 -27 21 -26 72 1 107 35
43 53 82 46 94 -4 6 -6 42 -5 80 2 51 11 90 36 152 38 95 80 271 94 396 5 47
8 162 6 255 -3 149 -8 207 -29 340 -2 17 -7 61 -11 98 -5 65 -29 140 -80 252
-13 28 -30 67 -39 88 -22 54 -96 149 -192 247 -46 47 -109 117 -140 155 -31
39 -77 93 -103 120 -32 34 -52 65 -61 99 -14 51 -79 145 -133 193 -17 15 -54
61 -82 102 -113 166 -255 313 -517 533 -25 21 -54 57 -65 80 -43 92 -84 175
-107 215 -44 78 -151 200 -323 369 -62 61 -113 117 -113 125 0 9 -8 24 -18 35
-9 10 -26 33 -36 49 -11 17 -46 64 -80 105 -44 55 -68 96 -88 155 -15 43 -28
82 -28 86 0 23 142 39 178 20 18 -10 144 -28 387 -56 77 -9 176 -20 220 -25
44 -5 107 -12 140 -15 33 -3 89 -10 125 -16 36 -5 133 -14 215 -19 83 -5 182
-16 220 -25 103 -24 194 -16 281 24 88 42 207 119 309 202 95 76 178 137 216
159 49 27 103 67 164 119 130 113 183 156 301 246 43 33 94 75 115 93 20 17
40 32 44 32 4 0 18 9 32 20 14 11 38 20 53 20 25 0 50 11 175 78 22 11 70 35
107 52 72 33 153 107 184 168 11 20 29 53 40 72 19 31 40 128 45 215 3 36 -17
111 -37 143 -8 12 -12 22 -9 22 2 0 -8 24 -24 53 -16 29 -31 71 -34 92 -3 22
-10 60 -17 85 -6 25 -15 68 -20 97 -12 77 -42 112 -172 204 l-22 16 17 90 c25
129 23 228 -5 283 -13 24 -29 46 -36 48 -7 2 -36 -19 -64 -47 -28 -28 -52 -50
-53 -49 -1 2 -28 46 -60 98 -43 71 -85 122 -165 200 -165 161 -314 245 -545
305 -112 29 -332 42 -438 25z m-3702 -5270 c28 -8 61 -20 75 -27 14 -7 41 -16
60 -19 19 -4 48 -16 65 -28 54 -38 63 -43 192 -102 29 -13 65 -26 80 -30 16
-4 37 -14 48 -23 11 -9 38 -28 60 -42 195 -124 248 -163 313 -228 39 -41 72
-77 72 -81 0 -25 -416 -163 -490 -164 -44 0 -58 -4 -72 -21 -23 -29 -113 -50
-151 -36 -45 17 -62 13 -99 -23 -28 -28 -51 -37 -129 -55 -52 -12 -123 -33
-158 -47 -35 -14 -65 -23 -67 -22 -1 2 10 80 26 173 44 257 52 333 76 685 7
96 17 127 38 112 6 -5 34 -15 61 -22z m-652 -6071 c-5 -68 -15 -119 -24 -114
-10 7 -12 104 -3 130 9 23 29 12 27 -16z"/>
</g>
</svg>
