<?xml version="1.0" standalone="no"?>
<!DOCTYPE svg PUBLIC "-//W3C//DTD SVG 20010904//EN"
 "http://www.w3.org/TR/2001/REC-SVG-20010904/DTD/svg10.dtd">
<svg version="1.0" xmlns="http://www.w3.org/2000/svg"
 width="762.000000pt" height="1280.000000pt" viewBox="0 0 762.000000 1280.000000"
 preserveAspectRatio="xMidYMid meet">
<g transform="translate(0.000000,1280.000000) scale(0.100000,-0.100000)"
fill="#000000" stroke="none">
<path d="M1615 12766 c-136 -44 -267 -108 -301 -148 -37 -44 -145 -271 -183
-384 -28 -84 -31 -103 -31 -225 0 -192 13 -284 49 -355 18 -36 34 -90 41 -138
15 -99 19 -109 85 -226 61 -107 167 -349 161 -366 -2 -6 -42 -30 -88 -53 -45
-23 -123 -71 -173 -107 -49 -36 -134 -95 -188 -131 -118 -78 -167 -136 -240
-282 l-52 -104 0 -126 0 -126 60 -140 60 -140 -1 -325 c-1 -298 -3 -334 -24
-430 -22 -102 -23 -126 -30 -915 -9 -862 -12 -960 -35 -1047 -19 -73 -104
-286 -170 -424 l-53 -112 35 -49 c34 -50 45 -88 74 -283 14 -88 35 -115 139
-167 54 -28 73 -33 136 -33 66 0 74 2 74 19 0 28 -23 47 -67 54 -48 8 -133 61
-133 83 0 15 15 16 156 12 153 -6 155 -5 170 17 8 13 33 30 54 39 64 25 64 49
0 85 -43 24 -65 71 -58 126 2 25 12 34 60 57 32 15 58 33 58 40 0 7 -15 27
-32 45 -28 29 -31 36 -20 51 26 36 25 44 -5 68 -27 21 -31 30 -37 101 -3 43
-13 110 -21 148 -17 83 -19 213 -5 391 17 206 49 366 109 534 44 123 133 526
181 820 43 256 66 326 100 305 18 -11 79 -141 110 -233 34 -105 54 -197 75
-359 9 -68 24 -165 35 -215 24 -118 37 -309 50 -716 9 -293 15 -368 36 -484 6
-34 4 -38 -34 -62 -52 -33 -62 -52 -62 -120 0 -52 -2 -57 -40 -87 -50 -40 -50
-59 -5 -150 20 -38 32 -75 28 -82 -3 -7 -24 -34 -44 -62 -81 -107 -103 -191
-78 -287 11 -41 7 -55 -69 -278 -44 -129 -93 -271 -110 -315 -45 -122 -47
-146 -17 -259 27 -104 44 -242 70 -562 18 -227 30 -279 90 -382 24 -42 95
-183 156 -312 156 -331 182 -379 253 -462 95 -111 498 -502 611 -593 175 -141
195 -164 269 -297 38 -68 85 -149 104 -181 35 -57 35 -58 19 -93 -20 -41 -21
-59 -5 -134 11 -53 10 -59 -10 -88 -12 -17 -19 -32 -15 -34 5 -1 27 -31 50
-65 34 -49 45 -76 52 -128 5 -36 20 -96 33 -133 l23 -67 5 45 c3 31 10 46 22
48 21 4 51 -88 108 -325 75 -310 163 -474 287 -534 73 -36 156 -6 276 100 32
28 70 54 84 57 22 6 25 11 20 40 -8 49 10 103 38 116 34 15 39 40 16 84 -11
20 -23 62 -26 93 -10 87 -22 124 -96 302 -67 163 -101 278 -115 391 -6 56 -5
59 25 85 37 33 41 72 11 110 -32 41 -27 100 11 139 l32 33 -32 48 c-17 26 -34
59 -38 73 -26 109 -129 198 -324 280 -61 26 -108 53 -123 70 -25 31 -311 574
-400 760 -30 63 -73 171 -95 239 -50 150 -121 291 -241 476 -113 176 -117 199
-21 130 26 -19 79 -47 117 -61 93 -35 143 -30 193 20 l36 36 -24 91 c-27 104
-25 164 9 271 19 62 25 71 73 101 29 19 92 70 140 113 235 209 246 217 290
196 39 -17 257 -224 466 -442 113 -117 249 -250 303 -297 62 -54 124 -120 170
-181 107 -145 148 -192 189 -217 24 -16 55 -53 88 -107 27 -46 78 -120 113
-165 35 -45 105 -136 157 -204 52 -67 134 -187 183 -268 49 -80 113 -177 142
-216 29 -38 66 -90 82 -115 18 -27 67 -73 124 -116 151 -113 207 -179 265
-315 67 -158 123 -251 388 -654 313 -476 330 -509 367 -722 29 -167 64 -267
112 -319 10 -12 34 -61 52 -110 19 -49 81 -181 139 -294 94 -183 120 -247 141
-343 5 -20 18 -33 44 -45 33 -15 79 -17 382 -16 372 1 402 5 408 52 7 49 -59
188 -213 449 -58 97 -105 183 -105 191 0 9 11 12 38 10 51 -4 53 14 2 33 -24
9 -51 24 -62 35 -10 10 -36 37 -57 59 -21 22 -66 64 -100 93 -33 30 -82 87
-108 127 -174 268 -236 414 -253 600 -17 175 -93 444 -217 770 -83 218 -153
359 -252 514 -44 68 -99 161 -123 205 -31 58 -68 107 -133 173 -166 169 -191
198 -249 292 -132 214 -242 457 -252 560 -6 54 -5 60 17 74 13 8 45 17 71 21
120 15 370 123 376 163 5 32 -62 180 -136 302 -36 58 -109 193 -163 298 -85
166 -185 338 -352 601 -45 71 -93 114 -182 162 -94 52 -95 53 -95 134 -1 103
-13 153 -46 188 -53 56 -127 73 -197 43 -29 -12 -37 -12 -46 -1 -12 15 -51
256 -51 317 0 166 -136 656 -260 934 -165 374 -325 862 -351 1075 -6 50 -21
141 -34 203 -114 539 -127 618 -106 631 6 4 41 -6 78 -23 100 -44 204 -76 359
-111 76 -17 175 -42 219 -56 161 -50 335 -40 384 22 17 22 21 41 21 103 -1
126 -23 225 -66 290 -55 83 -120 166 -185 235 -31 34 -71 85 -88 114 -65 110
-166 207 -346 332 -107 74 -139 103 -170 151 -38 58 -178 201 -285 290 -55 45
-102 91 -106 102 -11 35 -166 189 -211 209 -22 10 -81 25 -130 34 -48 8 -126
28 -173 44 -75 27 -97 30 -203 30 -65 0 -160 -5 -212 -12 -82 -10 -100 -9
-137 5 -24 10 -58 17 -75 17 -41 0 -86 47 -115 119 -30 76 -31 219 -3 311 17
55 20 93 19 255 0 213 -10 271 -67 397 -74 162 -153 259 -272 333 -102 64
-171 92 -286 115 -138 27 -194 25 -314 -14z"/>
<path d="M686 1794 c-98 -27 -223 -85 -295 -139 -74 -54 -192 -183 -244 -266
-98 -158 -155 -352 -144 -497 28 -381 234 -677 570 -819 95 -40 237 -73 315
-73 83 0 278 38 357 69 306 123 510 387 565 734 49 301 -94 635 -360 842 -195
151 -524 215 -764 149z"/>
</g>
</svg>
